REM DIRINDEX 1\2,1\3
REM DIRNAME cjc143,folder01,folder02
TITLE ""
FILE "sample sentencesTrack12.mp3" MP3
  TRACK 01 AUDIO
    TITLE "3:cjc143_2772"
    INDEX 01 00:00:00
  TRACK 02 AUDIO
    TITLE "0:"
    INDEX 01 00:00:64
  TRACK 03 AUDIO
    TITLE "3:cjc143_2773"
    INDEX 01 00:01:58
  TRACK 04 AUDIO
    TITLE "0:"
    INDEX 01 00:03:47
  TRACK 05 AUDIO
    TITLE "3:cjc143_2774"
    INDEX 01 00:04:58
  TRACK 06 AUDIO
    TITLE "0:"
    INDEX 01 00:06:65
  TRACK 07 AUDIO
    TITLE "3:cjc143_2775"
    INDEX 01 00:07:72
  TRACK 08 AUDIO
    TITLE "0:"
    INDEX 01 00:11:13
  TRACK 09 AUDIO
    TITLE "3:cjc143_2776"
    INDEX 01 00:12:28
  TRACK 10 AUDIO
    TITLE "0:"
    INDEX 01 00:14:23
  TRACK 11 AUDIO
    TITLE "3:cjc143_2777"
    INDEX 01 00:15:30
  TRACK 12 AUDIO
    TITLE "0:"
    INDEX 01 00:17:35
  TRACK 13 AUDIO
    TITLE "3:cjc143_2778"
    INDEX 01 00:18:46
  TRACK 14 AUDIO
    TITLE "0:"
    INDEX 01 00:21:25
  TRACK 15 AUDIO
    TITLE "3:cjc143_2779"
    INDEX 01 00:22:38
  TRACK 16 AUDIO
    TITLE "0:"
    INDEX 01 00:25:68
  TRACK 17 AUDIO
    TITLE "3:cjc143_2780"
    INDEX 01 00:27:02
  TRACK 18 AUDIO
    TITLE "0:"
    INDEX 01 00:29:09
  TRACK 19 AUDIO
    TITLE "3:cjc143_2781"
    INDEX 01 00:30:28
  TRACK 20 AUDIO
    TITLE "0:"
    INDEX 01 00:34:00
  TRACK 21 AUDIO
    TITLE "3:cjc143_2782"
    INDEX 01 00:35:12
  TRACK 22 AUDIO
    TITLE "0:"
    INDEX 01 00:38:35
  TRACK 23 AUDIO
    TITLE "3:cjc143_2783"
    INDEX 01 00:39:62
  TRACK 24 AUDIO
    TITLE "0:"
    INDEX 01 00:41:49
  TRACK 25 AUDIO
    TITLE "3:cjc143_2784"
    INDEX 01 00:43:09
  TRACK 26 AUDIO
    TITLE "0:"
    INDEX 01 00:45:59
  TRACK 27 AUDIO
    TITLE "3:cjc143_2785"
    INDEX 01 00:47:44
  TRACK 28 AUDIO
    TITLE "0:"
    INDEX 01 00:50:21
  TRACK 29 AUDIO
    TITLE "3:cjc143_2786"
    INDEX 01 00:51:30
  TRACK 30 AUDIO
    TITLE "0:"
    INDEX 01 00:55:71
  TRACK 31 AUDIO
    TITLE "3:cjc143_2787"
    INDEX 01 00:57:03
  TRACK 32 AUDIO
    TITLE "0:"
    INDEX 01 00:59:63
  TRACK 33 AUDIO
    TITLE "3:cjc143_2788"
    INDEX 01 01:00:70
  TRACK 34 AUDIO
    TITLE "0:"
    INDEX 01 01:03:08
  TRACK 35 AUDIO
    TITLE "3:cjc143_2789"
    INDEX 01 01:04:15
  TRACK 36 AUDIO
    TITLE "0:"
    INDEX 01 01:07:47
  TRACK 37 AUDIO
    TITLE "3:cjc143_2790"
    INDEX 01 01:08:56
  TRACK 38 AUDIO
    TITLE "0:"
    INDEX 01 01:11:07
  TRACK 39 AUDIO
    TITLE "3:cjc143_2791"
    INDEX 01 01:12:19
  TRACK 40 AUDIO
    TITLE "0:"
    INDEX 01 01:14:16
  TRACK 41 AUDIO
    TITLE "3:cjc143_2792"
    INDEX 01 01:15:23
  TRACK 42 AUDIO
    TITLE "0:"
    INDEX 01 01:17:55
  TRACK 43 AUDIO
    TITLE "3:cjc143_2793"
    INDEX 01 01:18:62
  TRACK 44 AUDIO
    TITLE "0:"
    INDEX 01 01:21:25
  TRACK 45 AUDIO
    TITLE "3:cjc143_2794"
    INDEX 01 01:22:50
  TRACK 46 AUDIO
    TITLE "0:"
    INDEX 01 01:26:03
  TRACK 47 AUDIO
    TITLE "3:cjc143_2795"
    INDEX 01 01:27:10
  TRACK 48 AUDIO
    TITLE "0:"
    INDEX 01 01:29:33
  TRACK 49 AUDIO
    TITLE "3:cjc143_2796"
    INDEX 01 01:30:44
  TRACK 50 AUDIO
    TITLE "0:"
    INDEX 01 01:34:44
  TRACK 51 AUDIO
    TITLE "3:cjc143_2797"
    INDEX 01 01:35:59
  TRACK 52 AUDIO
    TITLE "0:"
    INDEX 01 01:38:47
  TRACK 53 AUDIO
    TITLE "3:cjc143_2798"
    INDEX 01 01:39:57
  TRACK 54 AUDIO
    TITLE "0:"
    INDEX 01 01:42:37
  TRACK 55 AUDIO
    TITLE "3:cjc143_2799"
    INDEX 01 01:43:52
  TRACK 56 AUDIO
    TITLE "0:"
    INDEX 01 01:45:57
  TRACK 57 AUDIO
    TITLE "3:cjc143_2800"
    INDEX 01 01:46:65
  TRACK 58 AUDIO
    TITLE "0:"
    INDEX 01 01:50:35
  TRACK 59 AUDIO
    TITLE "3:cjc143_2801"
    INDEX 01 01:51:52
  TRACK 60 AUDIO
    TITLE "0:"
    INDEX 01 01:54:35
  TRACK 61 AUDIO
    TITLE "3:cjc143_2802"
    INDEX 01 01:55:40
  TRACK 62 AUDIO
    TITLE "0:"
    INDEX 01 01:59:08
  TRACK 63 AUDIO
    TITLE "3:cjc143_2803"
    INDEX 01 02:00:14
  TRACK 64 AUDIO
    TITLE "0:"
    INDEX 01 02:02:44
  TRACK 65 AUDIO
    TITLE "3:cjc143_2804"
    INDEX 01 02:03:51
  TRACK 66 AUDIO
    TITLE "0:"
    INDEX 01 02:05:68
  TRACK 67 AUDIO
    TITLE "3:cjc143_2805"
    INDEX 01 02:07:00
  TRACK 68 AUDIO
    TITLE "0:"
    INDEX 01 02:09:03
  TRACK 69 AUDIO
    TITLE "3:cjc143_2806"
    INDEX 01 02:10:12
  TRACK 70 AUDIO
    TITLE "0:"
    INDEX 01 02:12:27
  TRACK 71 AUDIO
    TITLE "3:cjc143_2807"
    INDEX 01 02:13:34
  TRACK 72 AUDIO
    TITLE "0:"
    INDEX 01 02:15:39
  TRACK 73 AUDIO
    TITLE "3:cjc143_2808"
    INDEX 01 02:16:46
  TRACK 74 AUDIO
    TITLE "0:"
    INDEX 01 02:18:74
  TRACK 75 AUDIO
    TITLE "3:cjc143_2809"
    INDEX 01 02:20:09
  TRACK 76 AUDIO
    TITLE "0:"
    INDEX 01 02:22:21
  TRACK 77 AUDIO
    TITLE "3:cjc143_2810"
    INDEX 01 02:23:28
  TRACK 78 AUDIO
    TITLE "0:"
    INDEX 01 02:25:63
  TRACK 79 AUDIO
    TITLE "3:cjc143_2811"
    INDEX 01 02:27:01
  TRACK 80 AUDIO
    TITLE "0:"
    INDEX 01 02:28:67
  TRACK 81 AUDIO
    TITLE "3:cjc143_2812"
    INDEX 01 02:30:07
  TRACK 82 AUDIO
    TITLE "0:"
    INDEX 01 02:33:74
  TRACK 83 AUDIO
    TITLE "3:cjc143_2813"
    INDEX 01 02:35:34
  TRACK 84 AUDIO
    TITLE "0:"
    INDEX 01 02:38:32
  TRACK 85 AUDIO
    TITLE "3:cjc143_2814"
    INDEX 01 02:39:41
  TRACK 86 AUDIO
    TITLE "0:"
    INDEX 01 02:41:34
  TRACK 87 AUDIO
    TITLE "3:cjc143_2815"
    INDEX 01 02:42:43
  TRACK 88 AUDIO
    TITLE "0:"
    INDEX 01 02:45:50
  TRACK 89 AUDIO
    TITLE "3:cjc143_2816"
    INDEX 01 02:46:61
  TRACK 90 AUDIO
    TITLE "0:"
    INDEX 01 02:49:61
  TRACK 91 AUDIO
    TITLE "3:cjc143_2817"
    INDEX 01 02:50:74
  TRACK 92 AUDIO
    TITLE "0:"
    INDEX 01 02:52:65
  TRACK 93 AUDIO
    TITLE "3:cjc143_2818"
    INDEX 01 02:53:73
  TRACK 94 AUDIO
    TITLE "0:"
    INDEX 01 02:58:05
  TRACK 95 AUDIO
    TITLE "3:cjc143_2819"
    INDEX 01 02:59:11
  TRACK 96 AUDIO
    TITLE "0:"
    INDEX 01 03:03:20
  TRACK 97 AUDIO
    TITLE "3:cjc143_2820"
    INDEX 01 03:04:33
  TRACK 98 AUDIO
    TITLE "0:"
    INDEX 01 03:07:24
  TRACK 99 AUDIO
    TITLE "3:cjc143_2821"
    INDEX 01 03:08:29
  TRACK 100 AUDIO
    TITLE "0:"
    INDEX 01 03:10:16
  TRACK 101 AUDIO
    TITLE "3:cjc143_2822"
    INDEX 01 03:11:26
  TRACK 102 AUDIO
    TITLE "0:"
    INDEX 01 03:14:20
  TRACK 103 AUDIO
    TITLE "3:cjc143_2823"
    INDEX 01 03:15:29
  TRACK 104 AUDIO
    TITLE "0:"
    INDEX 01 03:19:47
  TRACK 105 AUDIO
    TITLE "3:cjc143_2824"
    INDEX 01 03:20:54
  TRACK 106 AUDIO
    TITLE "0:"
    INDEX 01 03:22:65
  TRACK 107 AUDIO
    TITLE "3:cjc143_2825"
    INDEX 01 03:24:01
  TRACK 108 AUDIO
    TITLE "0:"
    INDEX 01 03:28:04
  TRACK 109 AUDIO
    TITLE "3:cjc143_2826"
    INDEX 01 03:29:45
  TRACK 110 AUDIO
    TITLE "0:"
    INDEX 01 03:31:48
  TRACK 111 AUDIO
    TITLE "3:cjc143_2827"
    INDEX 01 03:33:06
  TRACK 112 AUDIO
    TITLE "0:"
    INDEX 01 03:36:20
  TRACK 113 AUDIO
    TITLE "3:cjc143_2828"
    INDEX 01 03:37:29
  TRACK 114 AUDIO
    TITLE "0:"
    INDEX 01 03:39:38
  TRACK 115 AUDIO
    TITLE "3:cjc143_2829"
    INDEX 01 03:40:43
  TRACK 116 AUDIO
    TITLE "0:"
    INDEX 01 03:44:00
  TRACK 117 AUDIO
    TITLE "3:cjc143_2830"
    INDEX 01 03:45:03
  TRACK 118 AUDIO
    TITLE "0:"
    INDEX 01 03:46:55
  TRACK 119 AUDIO
    TITLE "3:cjc143_2831"
    INDEX 01 03:47:64
  TRACK 120 AUDIO
    TITLE "0:"
    INDEX 01 03:50:04
  TRACK 121 AUDIO
    TITLE "3:cjc143_2832"
    INDEX 01 03:51:13
  TRACK 122 AUDIO
    TITLE "0:"
    INDEX 01 03:53:42
  TRACK 123 AUDIO
    TITLE "3:cjc143_2833"
    INDEX 01 03:54:53
  TRACK 124 AUDIO
    TITLE "0:"
    INDEX 01 03:57:32
  TRACK 125 AUDIO
    TITLE "3:cjc143_2834"
    INDEX 01 03:58:39
  TRACK 126 AUDIO
    TITLE "0:"
    INDEX 01 04:01:70
